M48
; DRILL file {KiCad 7.0.6-0} date 2024 December 08, Sunday 15:01:43
; FORMAT={-:-/ absolute / metric / decimal}
; #@! TF.CreationDate,2024-12-08T15:01:43-03:00
; #@! TF.GenerationSoftware,Kicad,Pcbnew,7.0.6-0
; #@! TF.FileFunction,Plated,1,4,PTH
FMAT,2
METRIC
; #@! TA.AperFunction,Plated,PTH,ViaDrill
T1C0.305
; #@! TA.AperFunction,Plated,PTH,ComponentDrill
T2C1.000
%
G90
G05
T1
X90.0Y-109.0
X90.18Y-67.55
X94.09Y-117.54
X94.63Y-76.08
X97.31Y-99.4
X101.21Y-65.76
X101.21Y-106.5
X103.16Y-120.56
X103.28Y-98.94
X104.94Y-55.27
X105.01Y-91.0
X105.01Y-92.1
X105.21Y-89.5
X106.74Y-75.44
X108.71Y-112.8
X110.3Y-98.74
X110.79Y-91.7
X110.82Y-90.79
X111.01Y-89.81
X111.01Y-92.69
X111.17Y-65.59
X111.48Y-93.86
X113.01Y-124.0
X113.27Y-93.93
X114.31Y-90.01
X114.31Y-92.81
X114.37Y-76.26
X115.11Y-89.61
X115.11Y-93.21
X115.91Y-89.61
X115.91Y-93.21
X116.71Y-90.01
X116.71Y-92.81
X116.81Y-84.9
X117.21Y-100.8
X117.31Y-90.61
X117.31Y-92.21
X117.51Y-91.41
X120.31Y-86.5
X120.96Y-65.59
X122.01Y-109.3
X122.61Y-74.33
X123.01Y-93.8
X124.41Y-83.7
X126.47Y-56.7
X129.61Y-88.1
X129.81Y-117.0
X131.63Y-107.4
X132.91Y-98.1
X134.21Y-73.92
X134.31Y-83.5
X135.72Y-63.27
X139.63Y-70.04
X140.34Y-114.87
X140.91Y-101.6
X145.51Y-81.6
X146.11Y-96.8
T2
X73.61Y-84.85
X73.61Y-87.39
X73.61Y-89.93
X73.61Y-92.47
X73.61Y-95.01
X73.61Y-97.55
T0
M30
