%TF.GenerationSoftware,KiCad,Pcbnew,7.0.6-0*%
%TF.CreationDate,2024-12-08T09:24:40-03:00*%
%TF.ProjectId,CommsBoard,436f6d6d-7342-46f6-9172-642e6b696361,rev?*%
%TF.SameCoordinates,Original*%
%TF.FileFunction,Copper,L2,Inr*%
%TF.FilePolarity,Positive*%
%FSLAX46Y46*%
G04 Gerber Fmt 4.6, Leading zero omitted, Abs format (unit mm)*
G04 Created by KiCad (PCBNEW 7.0.6-0) date 2024-12-08 09:24:40*
%MOMM*%
%LPD*%
G01*
G04 APERTURE LIST*
%TA.AperFunction,ComponentPad*%
%ADD10R,1.700000X1.700000*%
%TD*%
%TA.AperFunction,ComponentPad*%
%ADD11O,1.700000X1.700000*%
%TD*%
%TA.AperFunction,ViaPad*%
%ADD12C,0.609600*%
%TD*%
G04 APERTURE END LIST*
D10*
%TO.N,GND*%
%TO.C,J1*%
X73610400Y-97550000D03*
D11*
%TO.N,Net-(J1-Pin_2)*%
X73610400Y-95010000D03*
%TO.N,Net-(J1-Pin_3)*%
X73610400Y-92470000D03*
%TO.N,Net-(J1-Pin_4)*%
X73610400Y-89930000D03*
%TO.N,Net-(J1-Pin_5)*%
X73610400Y-87390000D03*
%TO.N,Net-(J1-Pin_6)*%
X73610400Y-84850000D03*
%TD*%
D12*
%TO.N,GND*%
X115910400Y-93210000D03*
X129610400Y-88100000D03*
X117510400Y-91410000D03*
X134310400Y-83500000D03*
X116810400Y-84900000D03*
X116710400Y-90010000D03*
X132910400Y-98100000D03*
X145510400Y-81600000D03*
X129810400Y-117000000D03*
X120310400Y-86500000D03*
X101210400Y-106500000D03*
X109510400Y-92510000D03*
X108710400Y-112800000D03*
X140910400Y-101600000D03*
X115110400Y-93210000D03*
X109610400Y-102100000D03*
X117310400Y-92210000D03*
X123010400Y-93800000D03*
X109410400Y-90310000D03*
X97310400Y-99400000D03*
X117310400Y-90610000D03*
X105010400Y-92100000D03*
X114310400Y-90010000D03*
X105010400Y-91000000D03*
X122010400Y-109300000D03*
X115110400Y-89610000D03*
X115910400Y-89610000D03*
X113010400Y-124000000D03*
X114310400Y-92810000D03*
X124410400Y-83700000D03*
X116710400Y-92810000D03*
X146110400Y-96800000D03*
X117210400Y-100800000D03*
X105510400Y-94400000D03*
X105210400Y-89500000D03*
%TD*%
%TA.AperFunction,Conductor*%
%TO.N,GND*%
G36*
X156651376Y-42150624D02*
G01*
X156656825Y-42150602D01*
X156656827Y-42150603D01*
X156682824Y-42150500D01*
X156701758Y-42150500D01*
X156703423Y-42150537D01*
X157047588Y-42166116D01*
X157051185Y-42166457D01*
X157300300Y-42202492D01*
X157392751Y-42215866D01*
X157396314Y-42216561D01*
X157731377Y-42299296D01*
X157734829Y-42300331D01*
X158060152Y-42415594D01*
X158063500Y-42416970D01*
X158375918Y-42563639D01*
X158379109Y-42565335D01*
X158675587Y-42741987D01*
X158678612Y-42743997D01*
X158956306Y-42948935D01*
X158959101Y-42951218D01*
X159215307Y-43182445D01*
X159217880Y-43185007D01*
X159450124Y-43440291D01*
X159452440Y-43443102D01*
X159658464Y-43719957D01*
X159660486Y-43722973D01*
X159728966Y-43836872D01*
X159838312Y-44018742D01*
X159840033Y-44021952D01*
X159987937Y-44333764D01*
X159989334Y-44337128D01*
X160105878Y-44661951D01*
X160106936Y-44665431D01*
X160191001Y-45000155D01*
X160191711Y-45003717D01*
X160242476Y-45345072D01*
X160242834Y-45348697D01*
X160259855Y-45694280D01*
X160259900Y-45696100D01*
X160259900Y-128094288D01*
X160259855Y-128096104D01*
X160242847Y-128442316D01*
X160242491Y-128445928D01*
X160195957Y-128759646D01*
X160191765Y-128787904D01*
X160191056Y-128791464D01*
X160138127Y-129002772D01*
X160107054Y-129126820D01*
X160105999Y-129130296D01*
X159989531Y-129455802D01*
X159988141Y-129459159D01*
X159840332Y-129771676D01*
X159838619Y-129774881D01*
X159660881Y-130071417D01*
X159658863Y-130074438D01*
X159452925Y-130352114D01*
X159450620Y-130354923D01*
X159218449Y-130611081D01*
X159215881Y-130613649D01*
X158959723Y-130845820D01*
X158956914Y-130848125D01*
X158679238Y-131054063D01*
X158676217Y-131056081D01*
X158379681Y-131233819D01*
X158376476Y-131235532D01*
X158063959Y-131383341D01*
X158060602Y-131384731D01*
X157735096Y-131501199D01*
X157731622Y-131502253D01*
X157416064Y-131581297D01*
X157396267Y-131586256D01*
X157392709Y-131586963D01*
X157050728Y-131637691D01*
X157047116Y-131638047D01*
X156751478Y-131652570D01*
X156733413Y-131651238D01*
X156724674Y-131649500D01*
X74300911Y-131649500D01*
X74299095Y-131649455D01*
X73953901Y-131632497D01*
X73950292Y-131632141D01*
X73884447Y-131622374D01*
X73609322Y-131581562D01*
X73605759Y-131580854D01*
X73545306Y-131565711D01*
X73271388Y-131497099D01*
X73267927Y-131496049D01*
X73180690Y-131464834D01*
X72943377Y-131379922D01*
X72940020Y-131378532D01*
X72628415Y-131231155D01*
X72625220Y-131229447D01*
X72608651Y-131219516D01*
X72545598Y-131181723D01*
X72329559Y-131052233D01*
X72326538Y-131050214D01*
X72049678Y-130844881D01*
X72046870Y-130842576D01*
X71881025Y-130692264D01*
X71791454Y-130611081D01*
X71788914Y-130608541D01*
X71557423Y-130353129D01*
X71555118Y-130350321D01*
X71349785Y-130073461D01*
X71347766Y-130070440D01*
X71236846Y-129885383D01*
X71170546Y-129774769D01*
X71168848Y-129771591D01*
X71021463Y-129459969D01*
X71020077Y-129456622D01*
X71008250Y-129423568D01*
X70903946Y-129132059D01*
X70902903Y-129128624D01*
X70819142Y-128794228D01*
X70818437Y-128790677D01*
X70775582Y-128501779D01*
X70767855Y-128449689D01*
X70767503Y-128446113D01*
X70757128Y-128234929D01*
X72499500Y-128234929D01*
X72531328Y-128446097D01*
X72539721Y-128501779D01*
X72619259Y-128759632D01*
X72619262Y-128759641D01*
X72736349Y-129002774D01*
X72888365Y-129225741D01*
X73038082Y-129387098D01*
X73071913Y-129423559D01*
X73071923Y-129423568D01*
X73282892Y-129591811D01*
X73282896Y-129591814D01*
X73282898Y-129591815D01*
X73516602Y-129726743D01*
X73767805Y-129825334D01*
X74030897Y-129885383D01*
X74159621Y-129895029D01*
X74232617Y-129900500D01*
X74232624Y-129900500D01*
X74367383Y-129900500D01*
X74436789Y-129895298D01*
X74569103Y-129885383D01*
X74832195Y-129825334D01*
X75083398Y-129726743D01*
X75317102Y-129591815D01*
X75528085Y-129423561D01*
X75711635Y-129225741D01*
X75863651Y-129002775D01*
X75980738Y-128759641D01*
X76060280Y-128501772D01*
X76100500Y-128234929D01*
X154899500Y-128234929D01*
X154931328Y-128446097D01*
X154939721Y-128501779D01*
X155019259Y-128759632D01*
X155019262Y-128759641D01*
X155136349Y-129002774D01*
X155288365Y-129225741D01*
X155438082Y-129387098D01*
X155471913Y-129423559D01*
X155471923Y-129423568D01*
X155682892Y-129591811D01*
X155682896Y-129591814D01*
X155682898Y-129591815D01*
X155916602Y-129726743D01*
X156167805Y-129825334D01*
X156430897Y-129885383D01*
X156559621Y-129895029D01*
X156632617Y-129900500D01*
X156632624Y-129900500D01*
X156767383Y-129900500D01*
X156836789Y-129895298D01*
X156969103Y-129885383D01*
X157232195Y-129825334D01*
X157483398Y-129726743D01*
X157717102Y-129591815D01*
X157928085Y-129423561D01*
X158111635Y-129225741D01*
X158263651Y-129002775D01*
X158380738Y-128759641D01*
X158460280Y-128501772D01*
X158500500Y-128234929D01*
X158500500Y-127965071D01*
X158460280Y-127698228D01*
X158380738Y-127440359D01*
X158263651Y-127197226D01*
X158111635Y-126974259D01*
X157928085Y-126776439D01*
X157928084Y-126776438D01*
X157928076Y-126776431D01*
X157717107Y-126608188D01*
X157717096Y-126608181D01*
X157483396Y-126473256D01*
X157232190Y-126374664D01*
X156969103Y-126314617D01*
X156767383Y-126299500D01*
X156767376Y-126299500D01*
X156632624Y-126299500D01*
X156632617Y-126299500D01*
X156430896Y-126314617D01*
X156167809Y-126374664D01*
X155916603Y-126473256D01*
X155682903Y-126608181D01*
X155682892Y-126608188D01*
X155471923Y-126776431D01*
X155471913Y-126776440D01*
X155288366Y-126974258D01*
X155136348Y-127197227D01*
X155019264Y-127440353D01*
X155019259Y-127440367D01*
X154939721Y-127698220D01*
X154939720Y-127698228D01*
X154899500Y-127965071D01*
X154899500Y-128234929D01*
X76100500Y-128234929D01*
X76100500Y-127965071D01*
X76060280Y-127698228D01*
X75980738Y-127440359D01*
X75863651Y-127197226D01*
X75711635Y-126974259D01*
X75528085Y-126776439D01*
X75528084Y-126776438D01*
X75528076Y-126776431D01*
X75317107Y-126608188D01*
X75317096Y-126608181D01*
X75083396Y-126473256D01*
X74832190Y-126374664D01*
X74569103Y-126314617D01*
X74367383Y-126299500D01*
X74367376Y-126299500D01*
X74232624Y-126299500D01*
X74232617Y-126299500D01*
X74030896Y-126314617D01*
X73767809Y-126374664D01*
X73516603Y-126473256D01*
X73282903Y-126608181D01*
X73282892Y-126608188D01*
X73071923Y-126776431D01*
X73071913Y-126776440D01*
X72888366Y-126974258D01*
X72736348Y-127197227D01*
X72619264Y-127440353D01*
X72619259Y-127440367D01*
X72539721Y-127698220D01*
X72539720Y-127698228D01*
X72499500Y-127965071D01*
X72499500Y-128234929D01*
X70757128Y-128234929D01*
X70757128Y-128234924D01*
X70750545Y-128100904D01*
X70750500Y-128099088D01*
X70750500Y-97475000D01*
X72610400Y-97475000D01*
X73111313Y-97475000D01*
X73110400Y-97478111D01*
X73110400Y-97621889D01*
X73111313Y-97625000D01*
X72610401Y-97625000D01*
X72610401Y-98414778D01*
X72619101Y-98458524D01*
X72652255Y-98508143D01*
X72652256Y-98508144D01*
X72701872Y-98541296D01*
X72745626Y-98549999D01*
X73535400Y-98549999D01*
X73535400Y-98044358D01*
X73574637Y-98050000D01*
X73646163Y-98050000D01*
X73685400Y-98044358D01*
X73685400Y-98549999D01*
X74475179Y-98549999D01*
X74518924Y-98541298D01*
X74568543Y-98508144D01*
X74568544Y-98508143D01*
X74601696Y-98458527D01*
X74610400Y-98414773D01*
X74610400Y-97625000D01*
X74109487Y-97625000D01*
X74110400Y-97621889D01*
X74110400Y-97478111D01*
X74109487Y-97475000D01*
X74610399Y-97475000D01*
X74610399Y-96685221D01*
X74601698Y-96641475D01*
X74568544Y-96591856D01*
X74568543Y-96591855D01*
X74518927Y-96558703D01*
X74475173Y-96550000D01*
X73685400Y-96550000D01*
X73685400Y-97055641D01*
X73646163Y-97050000D01*
X73574637Y-97050000D01*
X73535400Y-97055641D01*
X73535400Y-96550000D01*
X72745629Y-96550000D01*
X72701873Y-96558703D01*
X72652256Y-96591855D01*
X72652255Y-96591856D01*
X72619103Y-96641472D01*
X72610400Y-96685226D01*
X72610400Y-97475000D01*
X70750500Y-97475000D01*
X70750500Y-95010003D01*
X72505185Y-95010003D01*
X72524001Y-95213076D01*
X72524002Y-95213082D01*
X72579816Y-95409244D01*
X72579818Y-95409250D01*
X72670727Y-95591821D01*
X72670728Y-95591822D01*
X72670729Y-95591825D01*
X72793634Y-95754578D01*
X72793635Y-95754579D01*
X72931037Y-95879836D01*
X72944359Y-95891981D01*
X73117763Y-95999348D01*
X73307944Y-96073024D01*
X73508424Y-96110500D01*
X73508426Y-96110500D01*
X73712374Y-96110500D01*
X73712376Y-96110500D01*
X73912856Y-96073024D01*
X74103037Y-95999348D01*
X74276441Y-95891981D01*
X74427164Y-95754579D01*
X74550073Y-95591821D01*
X74640982Y-95409250D01*
X74696797Y-95213083D01*
X74715615Y-95010000D01*
X74696797Y-94806917D01*
X74640982Y-94610750D01*
X74550073Y-94428179D01*
X74550070Y-94428175D01*
X74550070Y-94428174D01*
X74427165Y-94265421D01*
X74427164Y-94265420D01*
X74276441Y-94128019D01*
X74276440Y-94128019D01*
X74103037Y-94020652D01*
X73912856Y-93946976D01*
X73824807Y-93930516D01*
X73712379Y-93909500D01*
X73712376Y-93909500D01*
X73508424Y-93909500D01*
X73508420Y-93909500D01*
X73358515Y-93937522D01*
X73307944Y-93946976D01*
X73307942Y-93946976D01*
X73307940Y-93946977D01*
X73117768Y-94020650D01*
X73117763Y-94020652D01*
X73117758Y-94020654D01*
X73117758Y-94020655D01*
X72944358Y-94128019D01*
X72944357Y-94128019D01*
X72793635Y-94265420D01*
X72793634Y-94265421D01*
X72670729Y-94428174D01*
X72670728Y-94428177D01*
X72579818Y-94610750D01*
X72579816Y-94610755D01*
X72524002Y-94806917D01*
X72524001Y-94806923D01*
X72505185Y-95009996D01*
X72505185Y-95010003D01*
X70750500Y-95010003D01*
X70750500Y-92470003D01*
X72505185Y-92470003D01*
X72524001Y-92673076D01*
X72524002Y-92673082D01*
X72579816Y-92869244D01*
X72579818Y-92869250D01*
X72670727Y-93051821D01*
X72670728Y-93051822D01*
X72670729Y-93051825D01*
X72793634Y-93214578D01*
X72793635Y-93214579D01*
X72931037Y-93339836D01*
X72944359Y-93351981D01*
X73117763Y-93459348D01*
X73307944Y-93533024D01*
X73508424Y-93570500D01*
X73508426Y-93570500D01*
X73712374Y-93570500D01*
X73712376Y-93570500D01*
X73912856Y-93533024D01*
X74103037Y-93459348D01*
X74276441Y-93351981D01*
X74427164Y-93214579D01*
X74550073Y-93051821D01*
X74640982Y-92869250D01*
X74696797Y-92673083D01*
X74715615Y-92470000D01*
X74696797Y-92266917D01*
X74640982Y-92070750D01*
X74550073Y-91888179D01*
X74550070Y-91888175D01*
X74550070Y-91888174D01*
X74427165Y-91725421D01*
X74427164Y-91725420D01*
X74276441Y-91588019D01*
X74276440Y-91588019D01*
X74103037Y-91480652D01*
X73912856Y-91406976D01*
X73875539Y-91400000D01*
X114704835Y-91400000D01*
X114725032Y-91579254D01*
X114725034Y-91579263D01*
X114784609Y-91749520D01*
X114855947Y-91863054D01*
X114880584Y-91902262D01*
X115008138Y-92029816D01*
X115073284Y-92070750D01*
X115160879Y-92125790D01*
X115331136Y-92185365D01*
X115331145Y-92185368D01*
X115465446Y-92200500D01*
X115465450Y-92200500D01*
X115555350Y-92200500D01*
X115555354Y-92200500D01*
X115689655Y-92185368D01*
X115757881Y-92161494D01*
X115859920Y-92125790D01*
X115859922Y-92125789D01*
X116012662Y-92029816D01*
X116140216Y-91902262D01*
X116236189Y-91749522D01*
X116244623Y-91725421D01*
X116295765Y-91579263D01*
X116295768Y-91579255D01*
X116315965Y-91400000D01*
X116295768Y-91220745D01*
X116295765Y-91220736D01*
X116236190Y-91050479D01*
X116153794Y-90919348D01*
X116140216Y-90897738D01*
X116012662Y-90770184D01*
X115973454Y-90745547D01*
X115859920Y-90674209D01*
X115689663Y-90614634D01*
X115689656Y-90614632D01*
X115689655Y-90614632D01*
X115555354Y-90599500D01*
X115465446Y-90599500D01*
X115331145Y-90614632D01*
X115331136Y-90614634D01*
X115160879Y-90674209D01*
X115008139Y-90770183D01*
X114880583Y-90897739D01*
X114784609Y-91050479D01*
X114725034Y-91220736D01*
X114725032Y-91220745D01*
X114704835Y-91400000D01*
X73875539Y-91400000D01*
X73824807Y-91390516D01*
X73712379Y-91369500D01*
X73712376Y-91369500D01*
X73508424Y-91369500D01*
X73508420Y-91369500D01*
X73358515Y-91397522D01*
X73307944Y-91406976D01*
X73307942Y-91406976D01*
X73307940Y-91406977D01*
X73117768Y-91480650D01*
X73117763Y-91480652D01*
X73117758Y-91480654D01*
X73117758Y-91480655D01*
X72944358Y-91588019D01*
X72944357Y-91588019D01*
X72793635Y-91725420D01*
X72793634Y-91725421D01*
X72670729Y-91888174D01*
X72670728Y-91888177D01*
X72579818Y-92070750D01*
X72579816Y-92070755D01*
X72524002Y-92266917D01*
X72524001Y-92266923D01*
X72505185Y-92469996D01*
X72505185Y-92470003D01*
X70750500Y-92470003D01*
X70750500Y-89930003D01*
X72505185Y-89930003D01*
X72524001Y-90133076D01*
X72524002Y-90133082D01*
X72579816Y-90329244D01*
X72579818Y-90329250D01*
X72670727Y-90511821D01*
X72670728Y-90511822D01*
X72670729Y-90511825D01*
X72793634Y-90674578D01*
X72793635Y-90674579D01*
X72898510Y-90770184D01*
X72944359Y-90811981D01*
X73117763Y-90919348D01*
X73307944Y-90993024D01*
X73508424Y-91030500D01*
X73508426Y-91030500D01*
X73712374Y-91030500D01*
X73712376Y-91030500D01*
X73912856Y-90993024D01*
X74103037Y-90919348D01*
X74276441Y-90811981D01*
X74427164Y-90674579D01*
X74427444Y-90674209D01*
X74550070Y-90511825D01*
X74550070Y-90511824D01*
X74550073Y-90511821D01*
X74640982Y-90329250D01*
X74696797Y-90133083D01*
X74715615Y-89930000D01*
X74696797Y-89726917D01*
X74640982Y-89530750D01*
X74550073Y-89348179D01*
X74550070Y-89348175D01*
X74550070Y-89348174D01*
X74427165Y-89185421D01*
X74427164Y-89185420D01*
X74276441Y-89048019D01*
X74276440Y-89048019D01*
X74103037Y-88940652D01*
X73912856Y-88866976D01*
X73824807Y-88850516D01*
X73712379Y-88829500D01*
X73712376Y-88829500D01*
X73508424Y-88829500D01*
X73508420Y-88829500D01*
X73358515Y-88857522D01*
X73307944Y-88866976D01*
X73307942Y-88866976D01*
X73307940Y-88866977D01*
X73117768Y-88940650D01*
X73117763Y-88940652D01*
X73117758Y-88940654D01*
X73117758Y-88940655D01*
X72944358Y-89048019D01*
X72944357Y-89048019D01*
X72793635Y-89185420D01*
X72793634Y-89185421D01*
X72670729Y-89348174D01*
X72670728Y-89348177D01*
X72579818Y-89530750D01*
X72579816Y-89530755D01*
X72524002Y-89726917D01*
X72524001Y-89726923D01*
X72505185Y-89929996D01*
X72505185Y-89930003D01*
X70750500Y-89930003D01*
X70750500Y-87390003D01*
X72505185Y-87390003D01*
X72524001Y-87593076D01*
X72524002Y-87593082D01*
X72579816Y-87789244D01*
X72579818Y-87789250D01*
X72670727Y-87971821D01*
X72670728Y-87971822D01*
X72670729Y-87971825D01*
X72793634Y-88134578D01*
X72793635Y-88134579D01*
X72931037Y-88259836D01*
X72944359Y-88271981D01*
X73117763Y-88379348D01*
X73307944Y-88453024D01*
X73508424Y-88490500D01*
X73508426Y-88490500D01*
X73712374Y-88490500D01*
X73712376Y-88490500D01*
X73912856Y-88453024D01*
X74103037Y-88379348D01*
X74276441Y-88271981D01*
X74427164Y-88134579D01*
X74550073Y-87971821D01*
X74640982Y-87789250D01*
X74696797Y-87593083D01*
X74715615Y-87390000D01*
X74696797Y-87186917D01*
X74640982Y-86990750D01*
X74550073Y-86808179D01*
X74550070Y-86808175D01*
X74550070Y-86808174D01*
X74427165Y-86645421D01*
X74427164Y-86645420D01*
X74276441Y-86508019D01*
X74276440Y-86508019D01*
X74103037Y-86400652D01*
X73912856Y-86326976D01*
X73824807Y-86310516D01*
X73712379Y-86289500D01*
X73712376Y-86289500D01*
X73508424Y-86289500D01*
X73508420Y-86289500D01*
X73358515Y-86317522D01*
X73307944Y-86326976D01*
X73307942Y-86326976D01*
X73307940Y-86326977D01*
X73117768Y-86400650D01*
X73117763Y-86400652D01*
X73117758Y-86400654D01*
X73117758Y-86400655D01*
X72944358Y-86508019D01*
X72944357Y-86508019D01*
X72793635Y-86645420D01*
X72793634Y-86645421D01*
X72670729Y-86808174D01*
X72670728Y-86808177D01*
X72579818Y-86990750D01*
X72579816Y-86990755D01*
X72524002Y-87186917D01*
X72524001Y-87186923D01*
X72505185Y-87389996D01*
X72505185Y-87390003D01*
X70750500Y-87390003D01*
X70750500Y-84850003D01*
X72505185Y-84850003D01*
X72524001Y-85053076D01*
X72524002Y-85053082D01*
X72579816Y-85249244D01*
X72579818Y-85249250D01*
X72670727Y-85431821D01*
X72670728Y-85431822D01*
X72670729Y-85431825D01*
X72793634Y-85594578D01*
X72793635Y-85594579D01*
X72931036Y-85719836D01*
X72944359Y-85731981D01*
X73117763Y-85839348D01*
X73307944Y-85913024D01*
X73508424Y-85950500D01*
X73508426Y-85950500D01*
X73712374Y-85950500D01*
X73712376Y-85950500D01*
X73912856Y-85913024D01*
X74103037Y-85839348D01*
X74276441Y-85731981D01*
X74427164Y-85594579D01*
X74550073Y-85431821D01*
X74640982Y-85249250D01*
X74696797Y-85053083D01*
X74715615Y-84850000D01*
X74696797Y-84646917D01*
X74640982Y-84450750D01*
X74550073Y-84268179D01*
X74550070Y-84268175D01*
X74550070Y-84268174D01*
X74427165Y-84105421D01*
X74427164Y-84105420D01*
X74276441Y-83968019D01*
X74103037Y-83860652D01*
X73912856Y-83786976D01*
X73824807Y-83770516D01*
X73712379Y-83749500D01*
X73712376Y-83749500D01*
X73508424Y-83749500D01*
X73508420Y-83749500D01*
X73358515Y-83777522D01*
X73307944Y-83786976D01*
X73307942Y-83786976D01*
X73307940Y-83786977D01*
X73117768Y-83860650D01*
X73117763Y-83860652D01*
X73117758Y-83860654D01*
X73117758Y-83860655D01*
X72944358Y-83968019D01*
X72944357Y-83968019D01*
X72793635Y-84105420D01*
X72793634Y-84105421D01*
X72670729Y-84268174D01*
X72670728Y-84268177D01*
X72579818Y-84450750D01*
X72579816Y-84450755D01*
X72524002Y-84646917D01*
X72524001Y-84646923D01*
X72505185Y-84849996D01*
X72505185Y-84850003D01*
X70750500Y-84850003D01*
X70750500Y-45834929D01*
X72499500Y-45834929D01*
X72536981Y-46083604D01*
X72539721Y-46101779D01*
X72619259Y-46359632D01*
X72619262Y-46359641D01*
X72736349Y-46602774D01*
X72888365Y-46825741D01*
X73048770Y-46998617D01*
X73071913Y-47023559D01*
X73071923Y-47023568D01*
X73282892Y-47191811D01*
X73282896Y-47191814D01*
X73282898Y-47191815D01*
X73516602Y-47326743D01*
X73767805Y-47425334D01*
X74030897Y-47485383D01*
X74159621Y-47495029D01*
X74232617Y-47500500D01*
X74232624Y-47500500D01*
X74367383Y-47500500D01*
X74436789Y-47495298D01*
X74569103Y-47485383D01*
X74832195Y-47425334D01*
X75083398Y-47326743D01*
X75317102Y-47191815D01*
X75528085Y-47023561D01*
X75711635Y-46825741D01*
X75863651Y-46602775D01*
X75980738Y-46359641D01*
X76060280Y-46101772D01*
X76100500Y-45834929D01*
X154899500Y-45834929D01*
X154936981Y-46083604D01*
X154939721Y-46101779D01*
X155019259Y-46359632D01*
X155019262Y-46359641D01*
X155136349Y-46602774D01*
X155288365Y-46825741D01*
X155448770Y-46998617D01*
X155471913Y-47023559D01*
X155471923Y-47023568D01*
X155682892Y-47191811D01*
X155682896Y-47191814D01*
X155682898Y-47191815D01*
X155916602Y-47326743D01*
X156167805Y-47425334D01*
X156430897Y-47485383D01*
X156559621Y-47495029D01*
X156632617Y-47500500D01*
X156632624Y-47500500D01*
X156767383Y-47500500D01*
X156836789Y-47495298D01*
X156969103Y-47485383D01*
X157232195Y-47425334D01*
X157483398Y-47326743D01*
X157717102Y-47191815D01*
X157928085Y-47023561D01*
X158111635Y-46825741D01*
X158263651Y-46602775D01*
X158380738Y-46359641D01*
X158460280Y-46101772D01*
X158500500Y-45834929D01*
X158500500Y-45565071D01*
X158460280Y-45298228D01*
X158380738Y-45040359D01*
X158263651Y-44797226D01*
X158111635Y-44574259D01*
X157928085Y-44376439D01*
X157928084Y-44376438D01*
X157928076Y-44376431D01*
X157717107Y-44208188D01*
X157717096Y-44208181D01*
X157483396Y-44073256D01*
X157232190Y-43974664D01*
X156969103Y-43914617D01*
X156767383Y-43899500D01*
X156767376Y-43899500D01*
X156632624Y-43899500D01*
X156632617Y-43899500D01*
X156430896Y-43914617D01*
X156167809Y-43974664D01*
X155916603Y-44073256D01*
X155682903Y-44208181D01*
X155682892Y-44208188D01*
X155471923Y-44376431D01*
X155471913Y-44376440D01*
X155299937Y-44561787D01*
X155288365Y-44574259D01*
X155153790Y-44771645D01*
X155136348Y-44797227D01*
X155019264Y-45040353D01*
X155019259Y-45040367D01*
X154939721Y-45298220D01*
X154929485Y-45366130D01*
X154899500Y-45565071D01*
X154899500Y-45834929D01*
X76100500Y-45834929D01*
X76100500Y-45565071D01*
X76060280Y-45298228D01*
X75980738Y-45040359D01*
X75863651Y-44797226D01*
X75711635Y-44574259D01*
X75528085Y-44376439D01*
X75528084Y-44376438D01*
X75528076Y-44376431D01*
X75317107Y-44208188D01*
X75317096Y-44208181D01*
X75083396Y-44073256D01*
X74832190Y-43974664D01*
X74569103Y-43914617D01*
X74367383Y-43899500D01*
X74367376Y-43899500D01*
X74232624Y-43899500D01*
X74232617Y-43899500D01*
X74030896Y-43914617D01*
X73767809Y-43974664D01*
X73516603Y-44073256D01*
X73282903Y-44208181D01*
X73282892Y-44208188D01*
X73071923Y-44376431D01*
X73071913Y-44376440D01*
X72899937Y-44561787D01*
X72888365Y-44574259D01*
X72753790Y-44771645D01*
X72736348Y-44797227D01*
X72619264Y-45040353D01*
X72619259Y-45040367D01*
X72539721Y-45298220D01*
X72529485Y-45366130D01*
X72499500Y-45565071D01*
X72499500Y-45834929D01*
X70750500Y-45834929D01*
X70750500Y-45700910D01*
X70750545Y-45699094D01*
X70759948Y-45507678D01*
X70767503Y-45353884D01*
X70767855Y-45350312D01*
X70818437Y-45009322D01*
X70819141Y-45005775D01*
X70902905Y-44671369D01*
X70903944Y-44667946D01*
X71020080Y-44343369D01*
X71021459Y-44340037D01*
X71168852Y-44028399D01*
X71170541Y-44025239D01*
X71347769Y-43729553D01*
X71349780Y-43726545D01*
X71555122Y-43449672D01*
X71557423Y-43446870D01*
X71788923Y-43191448D01*
X71791448Y-43188923D01*
X72046875Y-42957418D01*
X72049672Y-42955122D01*
X72326545Y-42749780D01*
X72329553Y-42747769D01*
X72625239Y-42570541D01*
X72628399Y-42568852D01*
X72940037Y-42421459D01*
X72943369Y-42420080D01*
X73267946Y-42303944D01*
X73271369Y-42302905D01*
X73605775Y-42219141D01*
X73609322Y-42218437D01*
X73666812Y-42209908D01*
X73950312Y-42167855D01*
X73953884Y-42167503D01*
X74168137Y-42156978D01*
X74299095Y-42150545D01*
X74300911Y-42150500D01*
X74344170Y-42150500D01*
X156649912Y-42150500D01*
X156651376Y-42150624D01*
G37*
%TD.AperFunction*%
%TD*%
M02*
