M48
; DRILL file {KiCad 7.0.6-0} date 2024 December 08, Sunday 07:43:16
; FORMAT={-:-/ absolute / metric / decimal}
; #@! TF.CreationDate,2024-12-08T07:43:16-03:00
; #@! TF.GenerationSoftware,Kicad,Pcbnew,7.0.6-0
; #@! TF.FileFunction,Plated,1,4,PTH
FMAT,2
METRIC
; #@! TA.AperFunction,Plated,PTH,ViaDrill
T1C0.305
; #@! TA.AperFunction,Plated,PTH,ComponentDrill
T2C1.000
; #@! TA.AperFunction,Plated,PTH,ComponentDrill
T3C3.730
%
G90
G05
T1
X97.31Y-99.4
X100.31Y-90.6
X100.31Y-92.4
X101.21Y-106.5
X101.71Y-89.2
X103.51Y-87.3
X105.51Y-85.4
X108.51Y-76.1
X108.61Y-79.6
X108.61Y-82.0
X108.71Y-112.8
X109.41Y-90.31
X109.51Y-92.51
X109.61Y-102.1
X110.31Y-90.51
X110.31Y-92.21
X110.71Y-76.0
X111.11Y-90.31
X111.11Y-92.51
X111.71Y-85.8
X111.91Y-80.8
X111.91Y-90.31
X111.91Y-92.51
X112.71Y-90.31
X112.71Y-92.51
X113.01Y-76.0
X113.01Y-124.0
X113.51Y-90.31
X113.51Y-92.51
X114.31Y-90.01
X114.31Y-92.81
X114.51Y-77.9
X115.11Y-89.61
X115.11Y-93.21
X115.31Y-76.0
X115.91Y-89.61
X115.91Y-93.21
X116.71Y-90.01
X116.71Y-92.81
X116.81Y-84.9
X117.21Y-100.8
X117.31Y-90.61
X117.31Y-92.21
X117.41Y-76.0
X117.51Y-91.41
X120.21Y-76.3
X120.31Y-80.6
X120.31Y-86.5
X120.81Y-74.3
X122.01Y-109.3
X122.91Y-72.4
X123.01Y-93.8
X124.01Y-70.9
X124.41Y-83.7
X125.61Y-70.4
X125.81Y-77.2
X129.61Y-88.1
X129.81Y-117.0
X132.91Y-98.1
X134.11Y-76.5
X134.31Y-83.5
X140.91Y-101.6
X145.51Y-81.6
X146.11Y-96.8
T2
X73.61Y-84.85
X73.61Y-87.39
X73.61Y-89.93
X73.61Y-92.47
X73.61Y-95.01
X73.61Y-97.55
T3
X154.91Y-55.1
X154.91Y-80.1
T0
M30
