%TF.GenerationSoftware,KiCad,Pcbnew,7.0.6-0*%
%TF.CreationDate,2024-12-08T09:24:40-03:00*%
%TF.ProjectId,CommsBoard,436f6d6d-7342-46f6-9172-642e6b696361,rev?*%
%TF.SameCoordinates,Original*%
%TF.FileFunction,Copper,L3,Inr*%
%TF.FilePolarity,Positive*%
%FSLAX46Y46*%
G04 Gerber Fmt 4.6, Leading zero omitted, Abs format (unit mm)*
G04 Created by KiCad (PCBNEW 7.0.6-0) date 2024-12-08 09:24:40*
%MOMM*%
%LPD*%
G01*
G04 APERTURE LIST*
%TA.AperFunction,ComponentPad*%
%ADD10R,1.700000X1.700000*%
%TD*%
%TA.AperFunction,ComponentPad*%
%ADD11O,1.700000X1.700000*%
%TD*%
%TA.AperFunction,ViaPad*%
%ADD12C,0.609600*%
%TD*%
G04 APERTURE END LIST*
D10*
%TO.N,GND*%
%TO.C,J1*%
X73610400Y-97550000D03*
D11*
%TO.N,Net-(J1-Pin_2)*%
X73610400Y-95010000D03*
%TO.N,Net-(J1-Pin_3)*%
X73610400Y-92470000D03*
%TO.N,Net-(J1-Pin_4)*%
X73610400Y-89930000D03*
%TO.N,Net-(J1-Pin_5)*%
X73610400Y-87390000D03*
%TO.N,Net-(J1-Pin_6)*%
X73610400Y-84850000D03*
%TD*%
D12*
%TO.N,GND*%
X115910400Y-93210000D03*
X129610400Y-88100000D03*
X117510400Y-91410000D03*
X134310400Y-83500000D03*
X116810400Y-84900000D03*
X116710400Y-90010000D03*
X132910400Y-98100000D03*
X145510400Y-81600000D03*
X129810400Y-117000000D03*
X120310400Y-86500000D03*
X101210400Y-106500000D03*
X109510400Y-92510000D03*
X108710400Y-112800000D03*
X140910400Y-101600000D03*
X115110400Y-93210000D03*
X109610400Y-102100000D03*
X117310400Y-92210000D03*
X123010400Y-93800000D03*
X109410400Y-90310000D03*
X97310400Y-99400000D03*
X117310400Y-90610000D03*
X105010400Y-92100000D03*
X114310400Y-90010000D03*
X105010400Y-91000000D03*
X122010400Y-109300000D03*
X115110400Y-89610000D03*
X115910400Y-89610000D03*
X113010400Y-124000000D03*
X114310400Y-92810000D03*
X124410400Y-83700000D03*
X116710400Y-92810000D03*
X146110400Y-96800000D03*
X117210400Y-100800000D03*
X105510400Y-94400000D03*
X105210400Y-89500000D03*
%TD*%
%TA.AperFunction,Conductor*%
%TO.N,GND*%
G36*
X156647293Y-42150640D02*
G01*
X156656825Y-42150602D01*
X156656827Y-42150603D01*
X156682824Y-42150500D01*
X156701189Y-42150500D01*
X156703966Y-42150562D01*
X157046346Y-42166060D01*
X157052395Y-42166632D01*
X157391535Y-42215690D01*
X157397508Y-42216856D01*
X157730166Y-42298997D01*
X157736006Y-42300748D01*
X158058988Y-42415182D01*
X158064623Y-42417497D01*
X158374787Y-42563109D01*
X158380164Y-42565964D01*
X158674528Y-42741356D01*
X158679603Y-42744728D01*
X158955307Y-42948198D01*
X158960024Y-42952052D01*
X159214394Y-43181622D01*
X159218719Y-43185929D01*
X159449292Y-43439375D01*
X159453172Y-43444086D01*
X159657728Y-43718969D01*
X159661123Y-43724032D01*
X159837689Y-44017704D01*
X159840564Y-44023069D01*
X159987406Y-44332643D01*
X159989747Y-44338279D01*
X160003439Y-44376439D01*
X160105465Y-44660803D01*
X160107236Y-44666627D01*
X160140037Y-44797230D01*
X160190699Y-44998951D01*
X160191892Y-45004936D01*
X160242294Y-45343846D01*
X160242894Y-45349920D01*
X160259825Y-45693677D01*
X160259900Y-45696727D01*
X160259900Y-128093670D01*
X160259825Y-128096713D01*
X160242906Y-128441090D01*
X160242310Y-128447148D01*
X160191945Y-128786684D01*
X160190757Y-128792656D01*
X160107352Y-129125625D01*
X160105585Y-129131451D01*
X159989945Y-129454645D01*
X159987615Y-129460270D01*
X159840852Y-129770575D01*
X159837982Y-129775944D01*
X159661518Y-130070355D01*
X159658136Y-130075417D01*
X159453655Y-130351128D01*
X159449793Y-130355834D01*
X159219275Y-130610170D01*
X159214970Y-130614475D01*
X158960634Y-130844993D01*
X158955928Y-130848855D01*
X158680217Y-131053336D01*
X158675155Y-131056718D01*
X158380744Y-131233182D01*
X158375375Y-131236052D01*
X158065070Y-131382815D01*
X158059445Y-131385145D01*
X157736251Y-131500785D01*
X157730425Y-131502552D01*
X157397456Y-131585957D01*
X157391484Y-131587145D01*
X157051948Y-131637510D01*
X157045889Y-131638106D01*
X156757634Y-131652267D01*
X156727372Y-131650036D01*
X156724679Y-131649500D01*
X156724674Y-131649500D01*
X74301529Y-131649500D01*
X74298486Y-131649425D01*
X73955130Y-131632556D01*
X73949071Y-131631960D01*
X73610539Y-131581743D01*
X73604571Y-131580556D01*
X73559400Y-131569242D01*
X73272586Y-131497398D01*
X73266760Y-131495631D01*
X73083568Y-131430084D01*
X72944538Y-131380338D01*
X72938918Y-131378010D01*
X72629527Y-131231680D01*
X72624162Y-131228813D01*
X72330621Y-131052870D01*
X72325559Y-131049488D01*
X72124931Y-130900693D01*
X72050662Y-130845611D01*
X72045958Y-130841750D01*
X71792366Y-130611908D01*
X71788091Y-130607633D01*
X71558247Y-130354039D01*
X71554386Y-130349335D01*
X71350511Y-130074440D01*
X71347129Y-130069378D01*
X71236846Y-129885383D01*
X71171182Y-129775830D01*
X71168319Y-129770472D01*
X71021989Y-129461081D01*
X71019665Y-129455471D01*
X70904366Y-129133232D01*
X70902601Y-129127413D01*
X70876302Y-129022422D01*
X70819439Y-128795412D01*
X70818256Y-128789460D01*
X70798583Y-128656838D01*
X70768038Y-128450922D01*
X70767443Y-128444869D01*
X70757130Y-128234936D01*
X72499500Y-128234936D01*
X72539718Y-128501767D01*
X72539720Y-128501773D01*
X72619262Y-128759641D01*
X72736346Y-129002769D01*
X72736348Y-129002771D01*
X72736349Y-129002774D01*
X72888364Y-129225741D01*
X72888365Y-129225741D01*
X73071910Y-129423557D01*
X73071914Y-129423560D01*
X73071915Y-129423561D01*
X73282898Y-129591815D01*
X73516602Y-129726743D01*
X73767805Y-129825334D01*
X74030897Y-129885383D01*
X74059715Y-129887542D01*
X74232618Y-129900500D01*
X74232624Y-129900500D01*
X74367382Y-129900500D01*
X74518671Y-129889162D01*
X74569103Y-129885383D01*
X74832195Y-129825334D01*
X75083398Y-129726743D01*
X75317102Y-129591815D01*
X75528085Y-129423561D01*
X75711635Y-129225741D01*
X75863651Y-129002775D01*
X75980738Y-128759641D01*
X76060280Y-128501772D01*
X76069427Y-128441090D01*
X76100499Y-128234936D01*
X154899500Y-128234936D01*
X154939718Y-128501767D01*
X154939720Y-128501773D01*
X155019262Y-128759641D01*
X155136346Y-129002769D01*
X155136348Y-129002771D01*
X155136349Y-129002774D01*
X155288364Y-129225740D01*
X155288365Y-129225741D01*
X155471910Y-129423557D01*
X155471914Y-129423560D01*
X155471915Y-129423561D01*
X155682898Y-129591815D01*
X155916602Y-129726743D01*
X156167805Y-129825334D01*
X156430897Y-129885383D01*
X156459715Y-129887542D01*
X156632618Y-129900500D01*
X156632624Y-129900500D01*
X156767382Y-129900500D01*
X156918671Y-129889162D01*
X156969103Y-129885383D01*
X157232195Y-129825334D01*
X157483398Y-129726743D01*
X157717102Y-129591815D01*
X157928085Y-129423561D01*
X158111635Y-129225741D01*
X158263651Y-129002775D01*
X158380738Y-128759641D01*
X158460280Y-128501772D01*
X158469427Y-128441090D01*
X158500499Y-128234936D01*
X158500500Y-128234927D01*
X158500500Y-127965072D01*
X158500499Y-127965063D01*
X158460281Y-127698232D01*
X158460279Y-127698226D01*
X158380738Y-127440359D01*
X158263651Y-127197226D01*
X158111635Y-126974259D01*
X158101358Y-126963183D01*
X157928089Y-126776442D01*
X157887509Y-126744080D01*
X157717102Y-126608185D01*
X157483398Y-126473257D01*
X157483396Y-126473256D01*
X157232195Y-126374666D01*
X157232188Y-126374664D01*
X156969101Y-126314616D01*
X156767382Y-126299500D01*
X156767376Y-126299500D01*
X156632624Y-126299500D01*
X156632618Y-126299500D01*
X156430898Y-126314616D01*
X156167811Y-126374664D01*
X156167804Y-126374666D01*
X155916603Y-126473256D01*
X155916599Y-126473258D01*
X155682898Y-126608185D01*
X155471910Y-126776442D01*
X155288365Y-126974258D01*
X155136345Y-127197231D01*
X155136344Y-127197232D01*
X155019263Y-127440355D01*
X154939720Y-127698226D01*
X154939718Y-127698232D01*
X154899500Y-127965063D01*
X154899500Y-128234936D01*
X76100499Y-128234936D01*
X76100500Y-128234927D01*
X76100500Y-127965072D01*
X76100499Y-127965063D01*
X76060281Y-127698232D01*
X76060279Y-127698226D01*
X75980738Y-127440359D01*
X75863651Y-127197226D01*
X75711635Y-126974259D01*
X75701358Y-126963183D01*
X75528089Y-126776442D01*
X75487509Y-126744080D01*
X75317102Y-126608185D01*
X75083398Y-126473257D01*
X75083396Y-126473256D01*
X74832195Y-126374666D01*
X74832188Y-126374664D01*
X74569101Y-126314616D01*
X74367382Y-126299500D01*
X74367376Y-126299500D01*
X74232624Y-126299500D01*
X74232618Y-126299500D01*
X74030898Y-126314616D01*
X73767811Y-126374664D01*
X73767804Y-126374666D01*
X73516603Y-126473256D01*
X73516599Y-126473258D01*
X73282898Y-126608185D01*
X73071910Y-126776442D01*
X72888365Y-126974258D01*
X72736345Y-127197231D01*
X72736344Y-127197232D01*
X72619263Y-127440355D01*
X72539720Y-127698226D01*
X72539718Y-127698232D01*
X72499500Y-127965063D01*
X72499500Y-128234936D01*
X70757130Y-128234936D01*
X70750575Y-128101512D01*
X70750500Y-128098470D01*
X70750500Y-98447844D01*
X72260400Y-98447844D01*
X72266801Y-98507372D01*
X72266803Y-98507379D01*
X72317045Y-98642086D01*
X72317049Y-98642093D01*
X72403209Y-98757187D01*
X72403212Y-98757190D01*
X72518306Y-98843350D01*
X72518313Y-98843354D01*
X72653020Y-98893596D01*
X72653027Y-98893598D01*
X72712555Y-98899999D01*
X72712572Y-98900000D01*
X73360400Y-98900000D01*
X73360400Y-97985501D01*
X73468085Y-98034680D01*
X73574637Y-98050000D01*
X73646163Y-98050000D01*
X73752715Y-98034680D01*
X73860400Y-97985501D01*
X73860400Y-98900000D01*
X74508228Y-98900000D01*
X74508244Y-98899999D01*
X74567772Y-98893598D01*
X74567779Y-98893596D01*
X74702486Y-98843354D01*
X74702493Y-98843350D01*
X74817587Y-98757190D01*
X74817590Y-98757187D01*
X74903750Y-98642093D01*
X74903754Y-98642086D01*
X74953996Y-98507379D01*
X74953998Y-98507372D01*
X74960399Y-98447844D01*
X74960400Y-98447827D01*
X74960400Y-97800000D01*
X74044086Y-97800000D01*
X74069893Y-97759844D01*
X74110400Y-97621889D01*
X74110400Y-97478111D01*
X74069893Y-97340156D01*
X74044086Y-97300000D01*
X74960400Y-97300000D01*
X74960400Y-96652172D01*
X74960399Y-96652155D01*
X74953998Y-96592627D01*
X74953996Y-96592620D01*
X74903754Y-96457913D01*
X74903750Y-96457906D01*
X74817590Y-96342812D01*
X74817587Y-96342809D01*
X74702493Y-96256649D01*
X74702486Y-96256645D01*
X74567779Y-96206403D01*
X74567772Y-96206401D01*
X74508244Y-96200000D01*
X74214788Y-96200000D01*
X74147749Y-96180315D01*
X74101994Y-96127511D01*
X74092050Y-96058353D01*
X74121075Y-95994797D01*
X74149511Y-95970573D01*
X74276439Y-95891982D01*
X74276438Y-95891982D01*
X74276441Y-95891981D01*
X74427164Y-95754579D01*
X74550073Y-95591821D01*
X74640982Y-95409250D01*
X74696797Y-95213083D01*
X74715615Y-95010000D01*
X74696797Y-94806917D01*
X74640982Y-94610750D01*
X74550073Y-94428179D01*
X74427164Y-94265421D01*
X74427162Y-94265418D01*
X74276441Y-94128019D01*
X74276439Y-94128017D01*
X74103042Y-94020655D01*
X74103035Y-94020651D01*
X74007946Y-93983813D01*
X73912856Y-93946976D01*
X73712376Y-93909500D01*
X73508424Y-93909500D01*
X73307944Y-93946976D01*
X73307941Y-93946976D01*
X73307941Y-93946977D01*
X73117764Y-94020651D01*
X73117757Y-94020655D01*
X72944360Y-94128017D01*
X72944358Y-94128019D01*
X72793637Y-94265418D01*
X72670727Y-94428178D01*
X72579822Y-94610739D01*
X72579817Y-94610752D01*
X72524002Y-94806917D01*
X72505185Y-95009999D01*
X72505185Y-95010000D01*
X72524002Y-95213082D01*
X72579817Y-95409247D01*
X72579822Y-95409260D01*
X72670727Y-95591821D01*
X72793637Y-95754581D01*
X72944358Y-95891980D01*
X72944360Y-95891982D01*
X73071289Y-95970573D01*
X73117925Y-96022601D01*
X73129029Y-96091583D01*
X73101076Y-96155617D01*
X73042941Y-96194373D01*
X73006012Y-96200000D01*
X72712555Y-96200000D01*
X72653027Y-96206401D01*
X72653020Y-96206403D01*
X72518313Y-96256645D01*
X72518306Y-96256649D01*
X72403212Y-96342809D01*
X72403209Y-96342812D01*
X72317049Y-96457906D01*
X72317045Y-96457913D01*
X72266803Y-96592620D01*
X72266801Y-96592627D01*
X72260400Y-96652155D01*
X72260400Y-97300000D01*
X73176714Y-97300000D01*
X73150907Y-97340156D01*
X73110400Y-97478111D01*
X73110400Y-97621889D01*
X73150907Y-97759844D01*
X73176714Y-97800000D01*
X72260400Y-97800000D01*
X72260400Y-98447844D01*
X70750500Y-98447844D01*
X70750500Y-92470000D01*
X72505185Y-92470000D01*
X72524002Y-92673082D01*
X72579817Y-92869247D01*
X72579822Y-92869260D01*
X72670727Y-93051821D01*
X72793637Y-93214581D01*
X72944358Y-93351980D01*
X72944360Y-93351982D01*
X73043541Y-93413392D01*
X73117763Y-93459348D01*
X73307944Y-93533024D01*
X73508424Y-93570500D01*
X73508426Y-93570500D01*
X73712374Y-93570500D01*
X73712376Y-93570500D01*
X73912856Y-93533024D01*
X74103037Y-93459348D01*
X74276441Y-93351981D01*
X74427164Y-93214579D01*
X74550073Y-93051821D01*
X74640982Y-92869250D01*
X74696797Y-92673083D01*
X74715615Y-92470000D01*
X74696797Y-92266917D01*
X74640982Y-92070750D01*
X74620599Y-92029816D01*
X74557085Y-91902262D01*
X74550073Y-91888179D01*
X74427164Y-91725421D01*
X74427162Y-91725418D01*
X74276441Y-91588019D01*
X74276439Y-91588017D01*
X74103042Y-91480655D01*
X74103035Y-91480651D01*
X74007946Y-91443813D01*
X73912856Y-91406976D01*
X73875554Y-91400003D01*
X114704835Y-91400003D01*
X114725030Y-91579249D01*
X114725031Y-91579254D01*
X114784611Y-91749523D01*
X114871734Y-91888178D01*
X114880584Y-91902262D01*
X115008138Y-92029816D01*
X115160878Y-92125789D01*
X115331144Y-92185368D01*
X115331145Y-92185368D01*
X115331150Y-92185369D01*
X115421646Y-92195565D01*
X115465440Y-92200499D01*
X115465443Y-92200500D01*
X115465446Y-92200500D01*
X115555357Y-92200500D01*
X115555358Y-92200499D01*
X115622504Y-92192934D01*
X115689649Y-92185369D01*
X115689652Y-92185368D01*
X115689655Y-92185368D01*
X115859922Y-92125789D01*
X116012662Y-92029816D01*
X116140216Y-91902262D01*
X116236189Y-91749522D01*
X116295768Y-91579255D01*
X116295769Y-91579249D01*
X116315965Y-91400003D01*
X116315965Y-91399996D01*
X116295769Y-91220750D01*
X116295768Y-91220745D01*
X116236188Y-91050476D01*
X116140215Y-90897737D01*
X116012662Y-90770184D01*
X115859923Y-90674211D01*
X115689654Y-90614631D01*
X115689649Y-90614630D01*
X115555360Y-90599500D01*
X115555354Y-90599500D01*
X115465446Y-90599500D01*
X115465439Y-90599500D01*
X115331150Y-90614630D01*
X115331145Y-90614631D01*
X115160876Y-90674211D01*
X115008137Y-90770184D01*
X114880584Y-90897737D01*
X114784611Y-91050476D01*
X114725031Y-91220745D01*
X114725030Y-91220750D01*
X114704835Y-91399996D01*
X114704835Y-91400003D01*
X73875554Y-91400003D01*
X73712376Y-91369500D01*
X73508424Y-91369500D01*
X73307944Y-91406976D01*
X73307941Y-91406976D01*
X73307941Y-91406977D01*
X73117764Y-91480651D01*
X73117757Y-91480655D01*
X72944360Y-91588017D01*
X72944358Y-91588019D01*
X72793637Y-91725418D01*
X72670727Y-91888178D01*
X72579822Y-92070739D01*
X72579817Y-92070752D01*
X72524002Y-92266917D01*
X72505185Y-92469999D01*
X72505185Y-92470000D01*
X70750500Y-92470000D01*
X70750500Y-89930000D01*
X72505185Y-89930000D01*
X72524002Y-90133082D01*
X72579817Y-90329247D01*
X72579822Y-90329260D01*
X72670727Y-90511821D01*
X72793637Y-90674581D01*
X72944358Y-90811980D01*
X72944360Y-90811982D01*
X73043541Y-90873392D01*
X73117763Y-90919348D01*
X73307944Y-90993024D01*
X73508424Y-91030500D01*
X73508426Y-91030500D01*
X73712374Y-91030500D01*
X73712376Y-91030500D01*
X73912856Y-90993024D01*
X74103037Y-90919348D01*
X74276441Y-90811981D01*
X74427164Y-90674579D01*
X74550073Y-90511821D01*
X74640982Y-90329250D01*
X74696797Y-90133083D01*
X74715615Y-89930000D01*
X74696797Y-89726917D01*
X74640982Y-89530750D01*
X74550073Y-89348179D01*
X74427164Y-89185421D01*
X74427162Y-89185418D01*
X74276441Y-89048019D01*
X74276439Y-89048017D01*
X74103042Y-88940655D01*
X74103035Y-88940651D01*
X74007946Y-88903813D01*
X73912856Y-88866976D01*
X73712376Y-88829500D01*
X73508424Y-88829500D01*
X73307944Y-88866976D01*
X73307941Y-88866976D01*
X73307941Y-88866977D01*
X73117764Y-88940651D01*
X73117757Y-88940655D01*
X72944360Y-89048017D01*
X72944358Y-89048019D01*
X72793637Y-89185418D01*
X72670727Y-89348178D01*
X72579822Y-89530739D01*
X72579817Y-89530752D01*
X72524002Y-89726917D01*
X72505185Y-89929999D01*
X72505185Y-89930000D01*
X70750500Y-89930000D01*
X70750500Y-87390000D01*
X72505185Y-87390000D01*
X72524002Y-87593082D01*
X72579817Y-87789247D01*
X72579822Y-87789260D01*
X72670727Y-87971821D01*
X72793637Y-88134581D01*
X72944358Y-88271980D01*
X72944360Y-88271982D01*
X73043541Y-88333392D01*
X73117763Y-88379348D01*
X73307944Y-88453024D01*
X73508424Y-88490500D01*
X73508426Y-88490500D01*
X73712374Y-88490500D01*
X73712376Y-88490500D01*
X73912856Y-88453024D01*
X74103037Y-88379348D01*
X74276441Y-88271981D01*
X74427164Y-88134579D01*
X74550073Y-87971821D01*
X74640982Y-87789250D01*
X74696797Y-87593083D01*
X74715615Y-87390000D01*
X74696797Y-87186917D01*
X74640982Y-86990750D01*
X74550073Y-86808179D01*
X74427164Y-86645421D01*
X74427162Y-86645418D01*
X74276441Y-86508019D01*
X74276439Y-86508017D01*
X74103042Y-86400655D01*
X74103035Y-86400651D01*
X74007946Y-86363814D01*
X73912856Y-86326976D01*
X73712376Y-86289500D01*
X73508424Y-86289500D01*
X73307944Y-86326976D01*
X73307941Y-86326976D01*
X73307941Y-86326977D01*
X73117764Y-86400651D01*
X73117757Y-86400655D01*
X72944360Y-86508017D01*
X72944358Y-86508019D01*
X72793637Y-86645418D01*
X72670727Y-86808178D01*
X72579822Y-86990739D01*
X72579817Y-86990752D01*
X72524002Y-87186917D01*
X72505185Y-87389999D01*
X72505185Y-87390000D01*
X70750500Y-87390000D01*
X70750500Y-84850000D01*
X72505185Y-84850000D01*
X72524002Y-85053082D01*
X72579817Y-85249247D01*
X72579822Y-85249260D01*
X72670727Y-85431821D01*
X72793637Y-85594581D01*
X72944358Y-85731980D01*
X72944360Y-85731982D01*
X73043541Y-85793392D01*
X73117763Y-85839348D01*
X73307944Y-85913024D01*
X73508424Y-85950500D01*
X73508426Y-85950500D01*
X73712374Y-85950500D01*
X73712376Y-85950500D01*
X73912856Y-85913024D01*
X74103037Y-85839348D01*
X74276441Y-85731981D01*
X74427164Y-85594579D01*
X74550073Y-85431821D01*
X74640982Y-85249250D01*
X74696797Y-85053083D01*
X74715615Y-84850000D01*
X74696797Y-84646917D01*
X74640982Y-84450750D01*
X74550073Y-84268179D01*
X74427164Y-84105421D01*
X74427162Y-84105418D01*
X74276441Y-83968019D01*
X74276439Y-83968017D01*
X74103042Y-83860655D01*
X74103035Y-83860651D01*
X74007946Y-83823813D01*
X73912856Y-83786976D01*
X73712376Y-83749500D01*
X73508424Y-83749500D01*
X73307944Y-83786976D01*
X73307941Y-83786976D01*
X73307941Y-83786977D01*
X73117764Y-83860651D01*
X73117757Y-83860655D01*
X72944360Y-83968017D01*
X72944358Y-83968019D01*
X72793637Y-84105418D01*
X72670727Y-84268178D01*
X72579822Y-84450739D01*
X72579817Y-84450752D01*
X72524002Y-84646917D01*
X72505185Y-84849999D01*
X72505185Y-84850000D01*
X70750500Y-84850000D01*
X70750500Y-45834936D01*
X72499500Y-45834936D01*
X72539718Y-46101767D01*
X72539720Y-46101773D01*
X72619262Y-46359641D01*
X72736346Y-46602769D01*
X72888365Y-46825741D01*
X73071910Y-47023557D01*
X73071914Y-47023560D01*
X73071915Y-47023561D01*
X73282898Y-47191815D01*
X73516602Y-47326743D01*
X73767805Y-47425334D01*
X74030897Y-47485383D01*
X74059715Y-47487542D01*
X74232618Y-47500500D01*
X74232624Y-47500500D01*
X74367382Y-47500500D01*
X74518671Y-47489162D01*
X74569103Y-47485383D01*
X74832195Y-47425334D01*
X75083398Y-47326743D01*
X75317102Y-47191815D01*
X75528085Y-47023561D01*
X75711635Y-46825741D01*
X75863651Y-46602775D01*
X75980738Y-46359641D01*
X76060280Y-46101772D01*
X76100499Y-45834936D01*
X154899500Y-45834936D01*
X154939718Y-46101767D01*
X154939720Y-46101773D01*
X155019262Y-46359641D01*
X155136346Y-46602769D01*
X155288365Y-46825741D01*
X155471910Y-47023557D01*
X155471914Y-47023560D01*
X155471915Y-47023561D01*
X155682898Y-47191815D01*
X155916602Y-47326743D01*
X156167805Y-47425334D01*
X156430897Y-47485383D01*
X156459715Y-47487542D01*
X156632618Y-47500500D01*
X156632624Y-47500500D01*
X156767382Y-47500500D01*
X156918671Y-47489162D01*
X156969103Y-47485383D01*
X157232195Y-47425334D01*
X157483398Y-47326743D01*
X157717102Y-47191815D01*
X157928085Y-47023561D01*
X158111635Y-46825741D01*
X158263651Y-46602775D01*
X158380738Y-46359641D01*
X158460280Y-46101772D01*
X158500500Y-45834929D01*
X158500500Y-45565071D01*
X158500499Y-45565063D01*
X158460281Y-45298232D01*
X158460279Y-45298226D01*
X158411411Y-45139800D01*
X158380738Y-45040359D01*
X158263651Y-44797226D01*
X158111635Y-44574259D01*
X158101358Y-44563183D01*
X157928089Y-44376442D01*
X157873167Y-44332643D01*
X157717102Y-44208185D01*
X157483398Y-44073257D01*
X157483396Y-44073256D01*
X157232195Y-43974666D01*
X157232188Y-43974664D01*
X156969101Y-43914616D01*
X156767382Y-43899500D01*
X156767376Y-43899500D01*
X156632624Y-43899500D01*
X156632618Y-43899500D01*
X156430898Y-43914616D01*
X156167811Y-43974664D01*
X156167804Y-43974666D01*
X155916603Y-44073256D01*
X155916599Y-44073258D01*
X155682898Y-44208185D01*
X155471910Y-44376442D01*
X155288365Y-44574258D01*
X155136345Y-44797231D01*
X155136344Y-44797232D01*
X155019263Y-45040355D01*
X154939720Y-45298226D01*
X154939718Y-45298232D01*
X154899500Y-45565063D01*
X154899500Y-45834936D01*
X76100499Y-45834936D01*
X76100500Y-45834929D01*
X76100500Y-45565071D01*
X76100499Y-45565063D01*
X76060281Y-45298232D01*
X76060279Y-45298226D01*
X76011411Y-45139800D01*
X75980738Y-45040359D01*
X75863651Y-44797226D01*
X75711635Y-44574259D01*
X75701358Y-44563183D01*
X75528089Y-44376442D01*
X75473167Y-44332643D01*
X75317102Y-44208185D01*
X75083398Y-44073257D01*
X75083396Y-44073256D01*
X74832195Y-43974666D01*
X74832188Y-43974664D01*
X74569101Y-43914616D01*
X74367382Y-43899500D01*
X74367376Y-43899500D01*
X74232624Y-43899500D01*
X74232618Y-43899500D01*
X74030898Y-43914616D01*
X73767811Y-43974664D01*
X73767804Y-43974666D01*
X73516603Y-44073256D01*
X73516599Y-44073258D01*
X73282898Y-44208185D01*
X73071910Y-44376442D01*
X72888365Y-44574258D01*
X72736345Y-44797231D01*
X72736344Y-44797232D01*
X72619263Y-45040355D01*
X72539720Y-45298226D01*
X72539718Y-45298232D01*
X72499500Y-45565063D01*
X72499500Y-45834936D01*
X70750500Y-45834936D01*
X70750500Y-45701528D01*
X70750575Y-45698486D01*
X70767443Y-45355130D01*
X70768039Y-45349072D01*
X70768366Y-45346872D01*
X70818256Y-45010534D01*
X70819438Y-45004590D01*
X70902601Y-44672586D01*
X70904364Y-44666772D01*
X71019668Y-44344521D01*
X71021989Y-44338918D01*
X71147636Y-44073258D01*
X71168322Y-44029521D01*
X71171177Y-44024178D01*
X71347137Y-43730609D01*
X71350505Y-43725567D01*
X71554397Y-43450649D01*
X71558238Y-43445970D01*
X71788101Y-43192355D01*
X71792355Y-43188101D01*
X72045970Y-42958238D01*
X72050649Y-42954397D01*
X72325567Y-42750505D01*
X72330609Y-42747137D01*
X72624178Y-42571177D01*
X72629521Y-42568322D01*
X72938921Y-42421987D01*
X72944521Y-42419668D01*
X73266772Y-42304364D01*
X73272586Y-42302601D01*
X73316811Y-42291523D01*
X73604590Y-42219438D01*
X73610534Y-42218256D01*
X73949079Y-42168038D01*
X73955130Y-42167443D01*
X74298487Y-42150575D01*
X74301529Y-42150500D01*
X74344170Y-42150500D01*
X156645644Y-42150500D01*
X156647293Y-42150640D01*
G37*
%TD.AperFunction*%
%TD*%
M02*
